<?xml version="1.0" encoding="UTF-8"?>
<svg id="Layer_2" data-name="Layer 2" xmlns="http://www.w3.org/2000/svg" viewBox="0 0 163.58 64.05">
  <g id="Layer_1-2" data-name="Layer 1">
    <g>
      <path d="M24.47,12.41c0,.21-.23,.31-.69,.31h-1.31c-.64,0-1.03,.17-1.15,.5-.05,.18-.08,.47-.08,.88v14.41c0,3.74-.7,6.46-2.1,8.16-1.4,1.7-3.65,2.56-6.75,2.56-3.72,0-6.34-1.05-7.85-3.16-1-1.41-1.5-3.73-1.5-6.96V13.68c-.08-.46-.39-.74-.94-.85-.16-.02-.64-.04-1.44-.04-.44-.05-.66-.18-.66-.39,0-.23,.18-.35,.54-.35H9.2c.44,0,.65,.14,.65,.42,0,.18-.08,.28-.23,.31-.15,.03-.67,.05-1.54,.08-.36,0-.6,.03-.73,.08-.26,.1-.4,.28-.42,.54-.03,.1-.04,.83-.04,2.19v13.76c0,3.38,.54,5.69,1.62,6.92,1.08,1.23,2.68,1.84,4.81,1.84,3.9,0,6.1-2.21,6.62-6.64,.08-.67,.12-3.48,.12-8.44V14.37c0-.33,0-.47,0-.42,0-.56-.27-.91-.8-1.04-.18-.05-.7-.08-1.56-.08-.51,0-.76-.14-.76-.42,0-.23,.18-.35,.54-.35h6.12c.59,0,.89,.11,.89,.34Z"/>
      <path d="M42.48,30.23c0,2.57-.73,4.71-2.18,6.43-1.45,1.72-3.26,2.58-5.42,2.58-1.7,0-3.01-.62-3.94-1.85v8.97c0,.56,.02,.9,.06,1,.04,.1,.16,.19,.37,.27,.39,.08,1.14,.12,2.26,.12,.31,0,.47,.12,.47,.35,0,.18-.17,.27-.5,.27h-7.54c-.74,0-1.12-.1-1.12-.29,0-.25,.15-.37,.46-.37h1.15c.74,0,1.14-.17,1.19-.5,.03-.15,.04-1.33,.04-3.54V24.49c0-.72-.35-1.05-1.04-1h-1.62c-.23,0-.35-.1-.35-.29,0-.25,.28-.37,.85-.37,1.41,.03,2.69-.31,3.85-1,.33-.21,.59-.31,.77-.31,.21,0,.34,.1,.4,.29,.06,.19,.11,.78,.13,1.75,.95-1.36,2.31-2.04,4.08-2.04,2.23,0,4.06,.81,5.48,2.44,1.42,1.63,2.14,3.71,2.14,6.25Zm-3.42,.02c0-2-.31-3.71-.93-5.13-.82-1.95-2.1-2.93-3.83-2.93-.9,0-1.68,.32-2.32,.95-.64,.63-.99,1.4-1.04,2.29-.05,1.13-.04,3.51,.04,7.14,.03,1.83,.06,2.92,.12,3.3,.05,.37,.22,.75,.5,1.14,.75,1.05,1.71,1.58,2.9,1.58,1.34,0,2.35-.57,3.02-1.7,1.03-1.72,1.55-3.93,1.55-6.63Z"/>
      <path d="M70.69,38.56c0,.19-.22,.29-.65,.29h-6.93c-.33,0-.5-.08-.5-.25,0-.19,.14-.29,.42-.29h1.27c.38-.02,.61-.12,.67-.27,.06-.15,.1-.69,.1-1.62v-9.57c0-1.49-.2-2.55-.59-3.18-.4-.63-1.06-.94-2.01-.94-.66,0-1.28,.2-1.85,.6-.57,.4-.97,.9-1.2,1.52-.1,.38-.15,1.81-.15,4.27v7.27c0,.85,.01,1.33,.04,1.46,.08,.31,.3,.46,.68,.46h1.1c.33,0,.49,.1,.49,.29,0,.17-.19,.25-.58,.25h-6.93c-.31,0-.46-.1-.46-.31,0-.13,.08-.2,.23-.23,.15-.03,.67-.04,1.54-.04,.41-.03,.63-.15,.65-.38l.04-.54v-10.71c0-1.48-.19-2.51-.55-3.07-.37-.56-1.03-.84-1.97-.84s-1.73,.29-2.35,.88c-.62,.59-.94,1.33-.94,2.23v10.9c0,.77,.06,1.22,.17,1.36s.49,.21,1.12,.21h.3c.15-.02,.29-.04,.42-.04,.28,0,.42,.1,.42,.31,0,.18-.17,.27-.5,.27h-.38c-.62-.03-1.58-.03-2.89,0h-3.77c-.36,0-.54-.1-.54-.31,0-.18,.17-.27,.5-.27,.97,0,1.54-.04,1.69-.13,.15-.09,.24-.25,.27-.48v-9.98c0-1.92-.04-3.04-.12-3.38-.08-.33-.45-.5-1.12-.5h-1.27c-.33,0-.5-.09-.5-.27,0-.15,.06-.24,.17-.27,.12-.03,.53-.06,1.25-.12,.59-.03,1.33-.18,2.22-.46,.89-.28,1.39-.53,1.52-.73,.28-.28,.49-.42,.62-.42s.21,.1,.23,.31c.03,.21,.05,.92,.08,2.15,1.03-1.64,2.61-2.46,4.74-2.46,2.29,0,3.67,.86,4.16,2.58,1-1.72,2.61-2.58,4.82-2.58,1.9,0,3.19,.68,3.85,2.04,.36,.72,.54,1.91,.54,3.58v9.5c0,.87,.04,1.35,.13,1.44,.09,.09,.49,.16,1.19,.21h.68c.28-.02,.42,.06,.42,.25Z"/>
      <path d="M80,38.54c0,.23-.22,.35-.65,.35,.03,0-.28-.03-.92-.08-.77-.05-1.41-.08-1.92-.08h-4c-.13,.1-.28,.15-.46,.15-.28,0-.42-.09-.42-.28,0-.27,.26-.41,.77-.41,.98-.03,1.51-.1,1.6-.21,.09-.12,.13-.65,.13-1.6v-11.66c-.03-.64-.06-1.02-.1-1.14-.04-.12-.2-.17-.48-.17h-1.5c-.28,0-.42-.09-.42-.27,0-.16,.21-.25,.65-.27,1.7-.07,3.15-.47,4.37-1.2l.38-.23c.2,.38,.3,1.09,.3,2.11,0-.05,0,.08,0,.38v11.98c0,1.02,.02,1.63,.06,1.8s.17,.29,.4,.35c.38,.1,.95,.15,1.69,.15,.36,0,.54,.1,.54,.31Zm-2.89-23.97c0,1.15-.58,1.73-1.73,1.73-.49,0-.9-.16-1.23-.48-.33-.32-.5-.71-.5-1.17,0-1.21,.58-1.81,1.73-1.81s1.73,.58,1.73,1.73Z"/>
      <path d="M95.54,25.49c0,1.18-.58,1.77-1.73,1.77s-1.69-.54-1.69-1.62c0-.28,.13-.71,.38-1.27,.08-.18,.12-.36,.12-.54,0-.51-.26-.94-.79-1.27-.53-.33-1.19-.5-1.98-.5-1.54,0-2.73,.67-3.58,2-.85,1.33-1.27,3.21-1.27,5.62,0,2.72,.44,4.82,1.31,6.29,.87,1.48,2.1,2.21,3.69,2.21,1.08,0,2.04-.33,2.89-1,.38-.31,.89-.9,1.5-1.77,.13-.13,.24-.19,.35-.19,.26,0,.38,.1,.38,.31,0,.33-.45,.96-1.35,1.89-1.15,1.21-2.63,1.81-4.43,1.81-2.26,0-4.12-.81-5.6-2.42s-2.21-3.66-2.21-6.12c0-2.64,.78-4.83,2.35-6.56,1.56-1.73,3.53-2.6,5.89-2.6,1.51,0,2.85,.4,4.02,1.19,1.17,.8,1.75,1.72,1.75,2.77Z"/>
      <path d="M102.12,10.85v13.15c1.13-1.64,2.67-2.46,4.62-2.46,2.05,0,3.51,.56,4.39,1.69,.44,.56,.71,1.36,.81,2.39,.05,.36,.08,1.22,.08,2.58v9.7c.03,.26,.69,.39,2,.39,.23,.05,.35,.14,.35,.27,0,.21-.22,.31-.65,.31h-7c-.33,0-.5-.1-.5-.31,0-.18,.49-.27,1.46-.27,.59,0,.93-.07,1.02-.21,.09-.14,.13-.62,.13-1.44v-7.79c0-2.33-.1-3.77-.31-4.34-.44-1.18-1.4-1.77-2.89-1.77-1.23,0-2.23,.55-3,1.65-.26,.36-.38,1.15-.38,2.38v9.79c0,.69,.01,1.09,.04,1.19,.03,.26,.13,.4,.31,.44,.18,.04,.73,.07,1.65,.1,.31,0,.46,.1,.46,.31,0,.18-.13,.27-.38,.27h-3.42c-2.13-.03-3.31-.03-3.54,0h-.38c-.28,0-.42-.08-.42-.23,0-.18,.14-.27,.42-.27h.58l.58-.04c.59,.03,.9-.15,.92-.54V11.18h-2.96L100.62,0l4.76,11.18h-3.25s0-.33,0-.33Z"/>
      <path d="M127.37,33.87c0,1.49-.54,2.76-1.62,3.8-1.08,1.04-2.38,1.56-3.88,1.56-.87,0-1.92-.31-3.17-.92-.33-.18-.62-.27-.88-.27-.36,0-.62,.24-.8,.73-.1,.31-.24,.46-.42,.46s-.27-.1-.27-.31v-5.16c0-.28,.09-.42,.27-.42,.21,0,.32,.14,.35,.43,.15,1.19,.49,2.12,1,2.79,1.03,1.34,2.4,2.02,4.12,2.02,.92,0,1.67-.27,2.23-.81,.56-.54,.85-1.26,.85-2.16,0-1-.32-1.8-.96-2.39-.36-.33-.69-.57-.98-.71-.29-.14-1.16-.48-2.6-1.02-2.85-1.08-4.27-2.7-4.27-4.86,0-1.44,.48-2.65,1.45-3.62s2.16-1.47,3.59-1.47c.51,0,1.27,.15,2.29,.46,.25,.08,.48,.12,.69,.12,.53,0,.87-.26,.99-.77,.08-.26,.19-.38,.34-.38,.18,0,.27,.1,.27,.31v1.85c-.03,.62,.04,1.6,.19,2.96v.08c0,.21-.1,.31-.31,.31-.15,0-.35-.39-.58-1.16-.28-.93-.78-1.68-1.48-2.25-.71-.57-1.52-.85-2.44-.85-.87,0-1.59,.27-2.15,.81-.56,.54-.85,1.22-.85,2.04,0,1.29,.86,2.26,2.58,2.93,2.67,1.05,4.36,1.93,5.08,2.62,.92,.9,1.39,1.99,1.39,3.28Z"/>
      <path d="M143.91,34.57c0,.26-.2,.71-.6,1.37-.4,.65-.8,1.19-1.21,1.6-1.1,1.13-2.58,1.69-4.43,1.69-2.31,0-4.24-.83-5.79-2.5-1.55-1.67-2.33-3.73-2.33-6.2s.74-4.71,2.21-6.43,3.32-2.58,5.52-2.58c1.82,0,3.35,.53,4.58,1.6,1.23,1.06,1.89,2.43,1.96,4.1-.82,.13-1.91,.18-3.27,.15h-2.69c-.18,0-1.72,.04-4.62,.11-.13,.84-.19,1.65-.19,2.42,0,2.58,.49,4.57,1.48,5.96,.99,1.39,2.38,2.09,4.18,2.09,1.03,0,1.85-.23,2.46-.69,.62-.46,1.28-1.35,2-2.66,.1-.21,.24-.31,.42-.31,.21,0,.31,.09,.31,.27Zm-3.35-7.85c-.1-3.08-1.21-4.62-3.31-4.62s-3.37,1.54-3.89,4.62h7.2Z"/>
      <path d="M163.58,38.56c0,.19-.19,.29-.58,.29h-7.08c-.33,0-.5-.09-.5-.27,0-.13,.07-.2,.21-.23,.14-.03,.63-.05,1.48-.08,.49-.03,.77-.1,.85-.21,.08-.11,.12-.53,.12-1.25v-7.37c0-2.79-.1-4.45-.31-4.99-.44-1.15-1.31-1.73-2.62-1.73s-2.36,.56-3.23,1.69c-.26,.33-.38,.79-.38,1.38v11.98c0,.31,.27,.47,.82,.5l1.17,.04c.26,0,.39,.09,.39,.27s-.15,.27-.46,.27h-7c-.38,0-.58-.08-.58-.24s.23-.26,.69-.3h.96c.38,0,.62-.09,.69-.27l.12-.58v-8.37c0-2.92-.03-4.53-.08-4.84-.05-.31-.37-.46-.96-.46h-1.12c-.51,0-.77-.09-.77-.29,0-.25,.27-.37,.81-.37,.77-.03,1.6-.17,2.5-.42,.9-.26,1.53-.55,1.89-.89,.23-.21,.41-.31,.54-.31,.18,0,.27,.24,.27,.73v1.85c1.33-1.72,3.05-2.58,5.16-2.58,1.85,0,3.18,.68,4,2.04,.46,.77,.69,2.23,.69,4.39v8.77c0,.82,.04,1.27,.12,1.35,.15,.15,.53,.23,1.12,.23h.69c.26,0,.38,.08,.38,.25Z"/>
    </g>
    <g>
      <path d="M39.63,50.94l1.43-6.71h.86l-1.43,6.71h-.86Z"/>
      <path d="M46.11,47.46c-.01-.13-.05-.25-.12-.36-.07-.11-.15-.21-.26-.29-.11-.08-.23-.14-.37-.19s-.29-.07-.45-.07c-.25,0-.48,.06-.69,.17-.21,.11-.4,.27-.55,.47-.16,.2-.28,.44-.37,.71-.09,.27-.13,.57-.13,.88,0,.23,.03,.44,.09,.63,.06,.19,.14,.34,.25,.47,.11,.13,.24,.23,.4,.3,.15,.07,.33,.1,.52,.1,.31,0,.58-.07,.8-.21,.22-.14,.38-.33,.48-.58h.83c-.05,.23-.14,.44-.27,.62-.13,.19-.29,.35-.48,.48-.19,.13-.41,.24-.65,.31s-.5,.11-.78,.11c-.3,0-.58-.05-.83-.15-.25-.1-.46-.24-.64-.43s-.31-.41-.41-.67-.15-.55-.15-.87c0-.44,.07-.85,.2-1.22,.13-.37,.32-.7,.55-.97,.24-.27,.52-.49,.84-.64,.32-.16,.68-.23,1.06-.23,.25,0,.48,.03,.7,.1,.22,.07,.41,.17,.58,.29s.31,.27,.42,.44c.11,.17,.19,.36,.23,.56,0,.03,.01,.07,.01,.11,0,.04,0,.07,0,.11h-.82Z"/>
      <path d="M48.9,43.94h.81l-.59,2.74h.07c.08-.11,.16-.22,.26-.32,.09-.1,.2-.19,.32-.27,.12-.08,.26-.14,.41-.18s.32-.07,.51-.07c.24,0,.46,.04,.66,.12s.36,.19,.49,.33,.24,.3,.31,.48c.07,.18,.11,.37,.11,.57,0,.17-.02,.37-.07,.58l-.64,3.02h-.81l.61-2.88c.02-.09,.03-.18,.04-.26s.02-.16,.02-.23c0-.15-.02-.29-.07-.41s-.11-.23-.2-.32-.2-.16-.33-.21c-.13-.05-.28-.07-.45-.07-.2,0-.38,.03-.54,.1-.16,.07-.31,.16-.44,.28-.13,.12-.23,.26-.32,.42-.09,.16-.15,.34-.19,.53l-.65,3.06h-.81l1.5-7Z"/>
      <path d="M57.24,43.94h.82l-1.49,7h-.82l1.49-7Z"/>
      <path d="M59.22,45.93h.8l-1.06,5.01h-.8l1.06-5.01Zm.74-1.02c-.08,0-.15-.01-.22-.04-.07-.03-.13-.07-.18-.12-.05-.05-.09-.11-.12-.18-.03-.07-.04-.14-.04-.22s.01-.15,.04-.22c.03-.07,.07-.13,.12-.18,.05-.05,.11-.09,.18-.12,.07-.03,.14-.04,.22-.04s.15,.01,.22,.04c.07,.03,.13,.07,.18,.12s.09,.11,.12,.18c.03,.07,.04,.14,.04,.22s-.01,.15-.04,.22c-.03,.07-.07,.13-.12,.18-.05,.05-.11,.09-.18,.12-.07,.03-.14,.04-.22,.04Z"/>
      <path d="M62.8,51.03c-.28,0-.54-.05-.79-.14s-.46-.23-.65-.4c-.18-.18-.33-.4-.44-.66-.11-.26-.16-.56-.16-.9,0-.46,.06-.88,.19-1.26,.13-.38,.31-.71,.54-.98,.23-.27,.5-.48,.83-.63s.67-.22,1.05-.22c.26,0,.5,.04,.73,.13s.43,.22,.61,.39c.17,.17,.31,.38,.41,.63,.1,.25,.15,.54,.15,.86,0,.05,0,.11,0,.17,0,.07,0,.13-.01,.2,0,.07-.01,.14-.02,.2,0,.07-.01,.12-.02,.17h-3.61s0,.09,0,.13c0,.04,0,.08,0,.13,0,.26,.04,.48,.11,.66,.07,.18,.17,.33,.29,.44s.25,.2,.4,.25c.15,.05,.3,.08,.45,.08,.33,0,.6-.06,.8-.17s.35-.27,.46-.46h.85c-.05,.19-.14,.37-.26,.54-.12,.17-.27,.31-.46,.43-.18,.12-.4,.22-.64,.29-.24,.07-.51,.1-.8,.1Zm1.63-3.06s0-.04,0-.09c0-.04,0-.08,0-.12,0-.16-.02-.32-.07-.47-.05-.15-.12-.28-.22-.39-.1-.11-.22-.2-.36-.27-.14-.06-.31-.1-.5-.1s-.37,.03-.54,.1-.32,.17-.46,.29c-.14,.13-.25,.28-.35,.45s-.18,.37-.24,.58h2.72Z"/>
      <path d="M68.6,51.03c-.17,0-.34-.02-.51-.07-.16-.05-.31-.12-.45-.21-.14-.09-.25-.2-.36-.32-.1-.12-.18-.26-.23-.41h-.07l-.2,.93h-.77l1.49-7h.8l-.56,2.67h.07c.19-.25,.42-.45,.68-.58,.26-.13,.56-.2,.89-.2,.25,0,.49,.05,.7,.15,.22,.1,.41,.23,.56,.4,.16,.17,.28,.38,.37,.61,.09,.24,.13,.5,.13,.77,0,.46-.07,.89-.2,1.28-.13,.4-.31,.74-.54,1.03s-.5,.52-.81,.69-.65,.25-1.01,.25Zm-.06-.72c.25,0,.49-.06,.71-.18,.22-.12,.41-.29,.57-.5,.16-.21,.29-.47,.38-.76s.13-.61,.13-.96c0-.42-.11-.75-.32-.99-.21-.23-.51-.35-.89-.35-.26,0-.5,.06-.73,.18s-.42,.29-.59,.5c-.17,.21-.3,.46-.39,.75-.09,.29-.14,.6-.14,.93,0,.21,.03,.41,.09,.58,.06,.17,.14,.32,.25,.44,.11,.12,.24,.21,.4,.28,.16,.06,.33,.1,.53,.1Z"/>
      <path d="M74.13,51.03c-.28,0-.54-.05-.79-.14s-.46-.23-.65-.4c-.18-.18-.33-.4-.44-.66-.11-.26-.16-.56-.16-.9,0-.46,.06-.88,.19-1.26,.13-.38,.31-.71,.54-.98,.23-.27,.5-.48,.83-.63s.67-.22,1.05-.22c.26,0,.5,.04,.73,.13s.43,.22,.61,.39c.17,.17,.31,.38,.41,.63,.1,.25,.15,.54,.15,.86,0,.05,0,.11,0,.17,0,.07,0,.13-.01,.2,0,.07-.01,.14-.02,.2,0,.07-.01,.12-.02,.17h-3.61s0,.09,0,.13c0,.04,0,.08,0,.13,0,.26,.04,.48,.11,.66,.07,.18,.17,.33,.29,.44s.25,.2,.4,.25c.15,.05,.3,.08,.45,.08,.33,0,.6-.06,.8-.17s.35-.27,.46-.46h.85c-.05,.19-.14,.37-.26,.54-.12,.17-.27,.31-.46,.43-.18,.12-.4,.22-.64,.29-.24,.07-.51,.1-.8,.1Zm1.63-3.06s0-.04,0-.09c0-.04,0-.08,0-.12,0-.16-.02-.32-.07-.47-.05-.15-.12-.28-.22-.39-.1-.11-.22-.2-.36-.27-.14-.06-.31-.1-.5-.1s-.37,.03-.54,.1-.32,.17-.46,.29c-.14,.13-.25,.28-.35,.45s-.18,.37-.24,.58h2.72Z"/>
      <path d="M82.28,51.03c-.28,0-.54-.05-.79-.14s-.46-.23-.65-.4c-.18-.18-.33-.4-.44-.66-.11-.26-.16-.56-.16-.9,0-.46,.06-.88,.19-1.26,.13-.38,.31-.71,.54-.98,.23-.27,.5-.48,.83-.63s.67-.22,1.05-.22c.26,0,.5,.04,.73,.13s.43,.22,.61,.39c.17,.17,.31,.38,.41,.63,.1,.25,.15,.54,.15,.86,0,.05,0,.11,0,.17,0,.07,0,.13-.01,.2,0,.07-.01,.14-.02,.2,0,.07-.01,.12-.02,.17h-3.61s0,.09,0,.13c0,.04,0,.08,0,.13,0,.26,.04,.48,.11,.66,.07,.18,.17,.33,.29,.44s.25,.2,.4,.25c.15,.05,.3,.08,.45,.08,.33,0,.6-.06,.8-.17s.35-.27,.46-.46h.85c-.05,.19-.14,.37-.26,.54-.12,.17-.27,.31-.46,.43-.18,.12-.4,.22-.64,.29-.24,.07-.51,.1-.8,.1Zm1.63-3.06s0-.04,0-.09c0-.04,0-.08,0-.12,0-.16-.02-.32-.07-.47-.05-.15-.12-.28-.22-.39-.1-.11-.22-.2-.36-.27-.14-.06-.31-.1-.5-.1s-.37,.03-.54,.1-.32,.17-.46,.29c-.14,.13-.25,.28-.35,.45s-.18,.37-.24,.58h2.72Z"/>
      <path d="M86.26,49.6c.03,.11,.08,.21,.15,.3,.07,.09,.15,.17,.25,.24s.21,.12,.34,.16c.13,.04,.27,.06,.43,.06,.17,0,.33-.02,.47-.06s.26-.09,.37-.16c.1-.07,.18-.15,.24-.25,.06-.09,.09-.2,.09-.31,0-.15-.05-.28-.14-.4-.09-.11-.26-.21-.49-.28l-.77-.25c-.39-.13-.68-.29-.87-.5-.19-.21-.29-.48-.29-.81,0-.22,.05-.43,.14-.61,.09-.18,.23-.34,.39-.47,.17-.13,.37-.23,.6-.3,.23-.07,.48-.11,.75-.11s.51,.03,.73,.1c.22,.06,.41,.16,.56,.28,.16,.12,.29,.27,.39,.44s.17,.36,.2,.56h-.79c-.05-.22-.18-.39-.37-.51-.19-.12-.44-.18-.73-.18-.15,0-.3,.02-.43,.06-.13,.04-.24,.09-.33,.15s-.17,.14-.22,.23-.08,.19-.08,.3c0,.16,.06,.29,.18,.4,.12,.11,.29,.2,.52,.28l.68,.22c.21,.07,.39,.15,.54,.23s.27,.18,.37,.29,.17,.23,.21,.37c.04,.14,.07,.29,.07,.46,0,.22-.05,.42-.15,.61-.1,.18-.24,.34-.42,.48-.18,.13-.39,.24-.64,.32-.25,.08-.52,.11-.81,.11s-.53-.03-.76-.1-.43-.17-.6-.29c-.17-.13-.31-.28-.41-.45-.1-.18-.17-.37-.18-.58h.82Z"/>
      <path d="M90.02,52.65l1.01-2.65h.94l-1.25,2.65h-.7Z"/>
      <path d="M96.92,45.93h.78l-.16,.77h.07c.07-.12,.15-.24,.25-.34,.1-.1,.21-.19,.33-.27,.12-.08,.25-.14,.39-.18,.14-.04,.28-.06,.42-.06,.18,0,.35,.03,.5,.08s.28,.12,.4,.21c.11,.09,.21,.18,.28,.29,.07,.11,.12,.22,.15,.34h.07c.07-.12,.16-.24,.27-.35,.1-.11,.23-.21,.36-.29,.13-.08,.28-.15,.45-.2,.16-.05,.34-.07,.53-.07,.2,0,.39,.03,.56,.1,.17,.07,.32,.16,.45,.28,.13,.12,.23,.27,.3,.43,.07,.17,.11,.35,.11,.55,0,.17-.02,.37-.07,.58l-.67,3.16h-.81l.64-3.02c.02-.09,.03-.18,.04-.26s.02-.16,.02-.23c0-.12-.02-.23-.06-.34-.04-.1-.1-.2-.17-.28-.08-.08-.17-.14-.28-.19-.11-.05-.24-.07-.38-.07s-.29,.03-.44,.08c-.14,.06-.27,.14-.39,.24-.12,.11-.22,.24-.31,.39-.09,.15-.15,.33-.19,.52l-.67,3.14h-.81l.64-3.02c.02-.09,.03-.18,.04-.26,.01-.08,.02-.16,.02-.23,0-.12-.02-.23-.06-.34-.04-.1-.1-.2-.17-.28-.08-.08-.17-.14-.28-.19-.11-.05-.24-.07-.38-.07s-.29,.03-.44,.08c-.14,.06-.27,.14-.39,.24s-.22,.23-.31,.37c-.09,.15-.15,.31-.19,.48l-.68,3.2h-.81l1.07-5.01Z"/>
      <path d="M106.45,51.03c-.28,0-.54-.05-.79-.14s-.46-.23-.65-.4c-.18-.18-.33-.4-.44-.66-.11-.26-.16-.56-.16-.9,0-.46,.06-.88,.19-1.26,.13-.38,.31-.71,.54-.98,.23-.27,.5-.48,.83-.63s.67-.22,1.05-.22c.26,0,.5,.04,.73,.13s.43,.22,.61,.39c.17,.17,.31,.38,.41,.63,.1,.25,.15,.54,.15,.86,0,.05,0,.11,0,.17,0,.07,0,.13-.01,.2,0,.07-.01,.14-.02,.2,0,.07-.01,.12-.02,.17h-3.61s0,.09,0,.13c0,.04,0,.08,0,.13,0,.26,.04,.48,.11,.66,.07,.18,.17,.33,.29,.44s.25,.2,.4,.25c.15,.05,.3,.08,.45,.08,.33,0,.6-.06,.8-.17s.35-.27,.46-.46h.85c-.05,.19-.14,.37-.26,.54-.12,.17-.27,.31-.46,.43-.18,.12-.4,.22-.64,.29-.24,.07-.51,.1-.8,.1Zm1.63-3.06s0-.04,0-.09c0-.04,0-.08,0-.12,0-.16-.02-.32-.07-.47-.05-.15-.12-.28-.22-.39-.1-.11-.22-.2-.36-.27-.14-.06-.31-.1-.5-.1s-.37,.03-.54,.1-.32,.17-.46,.29c-.14,.13-.25,.28-.35,.45s-.18,.37-.24,.58h2.72Z"/>
      <path d="M110.74,45.93h.8l-1.06,5.01h-.8l1.06-5.01Zm.74-1.02c-.08,0-.15-.01-.22-.04-.07-.03-.13-.07-.18-.12-.05-.05-.09-.11-.12-.18-.03-.07-.04-.14-.04-.22s.01-.15,.04-.22c.03-.07,.07-.13,.12-.18,.05-.05,.11-.09,.18-.12,.07-.03,.14-.04,.22-.04s.15,.01,.22,.04c.07,.03,.13,.07,.18,.12s.09,.11,.12,.18c.03,.07,.04,.14,.04,.22s-.01,.15-.04,.22c-.03,.07-.07,.13-.12,.18-.05,.05-.11,.09-.18,.12-.07,.03-.14,.04-.22,.04Z"/>
      <path d="M113.08,45.93h.78l-.16,.75h.07c.08-.11,.17-.22,.26-.32,.1-.1,.21-.19,.33-.27s.26-.14,.42-.18c.15-.04,.32-.07,.51-.07,.24,0,.46,.04,.65,.12,.19,.08,.35,.19,.48,.33s.23,.3,.3,.48c.07,.18,.11,.37,.11,.57,0,.17-.02,.37-.06,.58l-.64,3.02h-.81l.61-2.88c.02-.09,.03-.18,.04-.26,.01-.08,.02-.16,.02-.23,0-.15-.02-.29-.07-.41s-.11-.23-.2-.32-.2-.16-.33-.21c-.13-.05-.28-.07-.44-.07-.19,0-.37,.03-.53,.1-.16,.07-.31,.16-.43,.28-.13,.12-.23,.26-.32,.42s-.15,.34-.19,.53l-.65,3.06h-.81l1.07-5.01Z"/>
      <path d="M119.89,51.03c-.28,0-.54-.05-.79-.14s-.46-.23-.65-.4c-.18-.18-.33-.4-.44-.66-.11-.26-.16-.56-.16-.9,0-.46,.06-.88,.19-1.26,.13-.38,.31-.71,.54-.98,.23-.27,.5-.48,.83-.63s.67-.22,1.05-.22c.26,0,.5,.04,.73,.13s.43,.22,.61,.39c.17,.17,.31,.38,.41,.63,.1,.25,.15,.54,.15,.86,0,.05,0,.11,0,.17,0,.07,0,.13-.01,.2,0,.07-.01,.14-.02,.2,0,.07-.01,.12-.02,.17h-3.61s0,.09,0,.13c0,.04,0,.08,0,.13,0,.26,.04,.48,.11,.66,.07,.18,.17,.33,.29,.44s.25,.2,.4,.25c.15,.05,.3,.08,.45,.08,.33,0,.6-.06,.8-.17s.35-.27,.46-.46h.85c-.05,.19-.14,.37-.26,.54-.12,.17-.27,.31-.46,.43-.18,.12-.4,.22-.64,.29-.24,.07-.51,.1-.8,.1Zm1.63-3.06s0-.04,0-.09c0-.04,0-.08,0-.12,0-.16-.02-.32-.07-.47-.05-.15-.12-.28-.22-.39-.1-.11-.22-.2-.36-.27-.14-.06-.31-.1-.5-.1s-.37,.03-.54,.1-.32,.17-.46,.29c-.14,.13-.25,.28-.35,.45s-.18,.37-.24,.58h2.72Z"/>
      <path d="M127.28,43.94h.82l-1.49,7h-.82l1.49-7Z"/>
      <path d="M129.26,45.93h.8l-1.06,5.01h-.8l1.06-5.01Zm.74-1.02c-.08,0-.15-.01-.22-.04-.07-.03-.13-.07-.18-.12-.05-.05-.09-.11-.12-.18-.03-.07-.04-.14-.04-.22s.01-.15,.04-.22c.03-.07,.07-.13,.12-.18,.05-.05,.11-.09,.18-.12,.07-.03,.14-.04,.22-.04s.15,.01,.22,.04c.07,.03,.13,.07,.18,.12s.09,.11,.12,.18c.03,.07,.04,.14,.04,.22s-.01,.15-.04,.22c-.03,.07-.07,.13-.12,.18-.05,.05-.11,.09-.18,.12-.07,.03-.14,.04-.22,.04Z"/>
      <path d="M132.85,51.03c-.28,0-.54-.05-.79-.14s-.46-.23-.65-.4c-.18-.18-.33-.4-.44-.66-.11-.26-.16-.56-.16-.9,0-.46,.06-.88,.19-1.26,.13-.38,.31-.71,.54-.98,.23-.27,.5-.48,.83-.63s.67-.22,1.05-.22c.26,0,.5,.04,.73,.13s.43,.22,.61,.39c.17,.17,.31,.38,.41,.63,.1,.25,.15,.54,.15,.86,0,.05,0,.11,0,.17,0,.07,0,.13-.01,.2,0,.07-.01,.14-.02,.2,0,.07-.01,.12-.02,.17h-3.61s0,.09,0,.13c0,.04,0,.08,0,.13,0,.26,.04,.48,.11,.66,.07,.18,.17,.33,.29,.44s.25,.2,.4,.25c.15,.05,.3,.08,.45,.08,.33,0,.6-.06,.8-.17s.35-.27,.46-.46h.85c-.05,.19-.14,.37-.26,.54-.12,.17-.27,.31-.46,.43-.18,.12-.4,.22-.64,.29-.24,.07-.51,.1-.8,.1Zm1.63-3.06s0-.04,0-.09c0-.04,0-.08,0-.12,0-.16-.02-.32-.07-.47-.05-.15-.12-.28-.22-.39-.1-.11-.22-.2-.36-.27-.14-.06-.31-.1-.5-.1s-.37,.03-.54,.1-.32,.17-.46,.29c-.14,.13-.25,.28-.35,.45s-.18,.37-.24,.58h2.72Z"/>
      <path d="M138.64,51.03c-.17,0-.34-.02-.51-.07-.16-.05-.31-.12-.45-.21-.14-.09-.25-.2-.36-.32-.1-.12-.18-.26-.23-.41h-.07l-.2,.93h-.77l1.49-7h.8l-.56,2.67h.07c.19-.25,.42-.45,.68-.58,.26-.13,.56-.2,.89-.2,.25,0,.49,.05,.7,.15,.22,.1,.41,.23,.56,.4,.16,.17,.28,.38,.37,.61,.09,.24,.13,.5,.13,.77,0,.46-.07,.89-.2,1.28-.13,.4-.31,.74-.54,1.03s-.5,.52-.81,.69-.65,.25-1.01,.25Zm-.06-.72c.25,0,.49-.06,.71-.18,.22-.12,.41-.29,.57-.5,.16-.21,.29-.47,.38-.76s.13-.61,.13-.96c0-.42-.11-.75-.32-.99-.21-.23-.51-.35-.89-.35-.26,0-.5,.06-.73,.18s-.42,.29-.59,.5c-.17,.21-.3,.46-.39,.75-.09,.29-.14,.6-.14,.93,0,.21,.03,.41,.09,.58,.06,.17,.14,.32,.25,.44,.11,.12,.24,.21,.4,.28,.16,.06,.33,.1,.53,.1Z"/>
      <path d="M143.4,43.94h.82l-1.49,7h-.82l1.49-7Z"/>
      <path d="M145.39,45.93h.8l-1.06,5.01h-.8l1.06-5.01Zm.74-1.02c-.08,0-.15-.01-.22-.04-.07-.03-.13-.07-.18-.12-.05-.05-.09-.11-.12-.18-.03-.07-.04-.14-.04-.22s.01-.15,.04-.22c.03-.07,.07-.13,.12-.18,.05-.05,.11-.09,.18-.12,.07-.03,.14-.04,.22-.04s.15,.01,.22,.04c.07,.03,.13,.07,.18,.12s.09,.11,.12,.18c.03,.07,.04,.14,.04,.22s-.01,.15-.04,.22c-.03,.07-.07,.13-.12,.18-.05,.05-.11,.09-.18,.12-.07,.03-.14,.04-.22,.04Z"/>
      <path d="M147.73,45.93h.78l-.16,.75h.07c.08-.11,.17-.22,.26-.32,.1-.1,.21-.19,.33-.27s.26-.14,.42-.18c.15-.04,.32-.07,.51-.07,.24,0,.46,.04,.65,.12,.19,.08,.35,.19,.48,.33s.23,.3,.3,.48c.07,.18,.11,.37,.11,.57,0,.17-.02,.37-.06,.58l-.64,3.02h-.81l.61-2.88c.02-.09,.03-.18,.04-.26,.01-.08,.02-.16,.02-.23,0-.15-.02-.29-.07-.41s-.11-.23-.2-.32-.2-.16-.33-.21c-.13-.05-.28-.07-.44-.07-.19,0-.37,.03-.53,.1-.16,.07-.31,.16-.43,.28-.13,.12-.23,.26-.32,.42s-.15,.34-.19,.53l-.65,3.06h-.81l1.07-5.01Z"/>
      <path d="M154.11,52.86c-.29,0-.56-.04-.8-.12-.24-.08-.45-.18-.63-.31-.18-.13-.32-.28-.42-.45-.1-.17-.16-.35-.18-.55h.85c.02,.1,.06,.19,.12,.28,.06,.09,.15,.17,.25,.23,.1,.07,.23,.12,.38,.16,.15,.04,.31,.06,.5,.06,.22,0,.42-.03,.6-.08,.17-.06,.32-.13,.45-.23,.13-.1,.23-.22,.31-.36,.08-.14,.14-.29,.18-.45l.22-.93h-.07c-.18,.25-.4,.44-.66,.57s-.54,.19-.86,.19c-.25,0-.49-.05-.71-.14-.22-.1-.41-.23-.58-.41-.16-.18-.29-.39-.39-.63-.09-.25-.14-.52-.14-.82,0-.45,.06-.85,.19-1.23,.13-.37,.3-.69,.53-.96s.49-.47,.79-.62c.3-.15,.63-.22,.99-.22,.18,0,.35,.02,.51,.07,.17,.05,.32,.12,.46,.21s.26,.2,.37,.32c.1,.12,.18,.26,.23,.41h.07l.2-.93h.78l-1.13,5.25c-.06,.26-.15,.49-.28,.7s-.3,.38-.5,.53c-.2,.15-.44,.26-.7,.34s-.56,.12-.89,.12Zm.47-2.7c.25,0,.48-.05,.7-.16,.22-.11,.4-.26,.56-.45,.16-.19,.28-.43,.37-.7,.09-.27,.14-.57,.14-.9,0-.21-.03-.41-.09-.58-.06-.17-.15-.32-.26-.43-.11-.12-.25-.21-.41-.28s-.34-.1-.53-.1c-.25,0-.48,.05-.69,.15-.21,.1-.39,.25-.54,.44-.15,.19-.27,.42-.36,.69-.09,.27-.13,.57-.13,.9,0,.22,.03,.42,.09,.6,.06,.18,.14,.32,.25,.45s.24,.22,.39,.28,.32,.1,.51,.1Z"/>
      <path d="M158.85,49.6c.03,.11,.08,.21,.15,.3,.07,.09,.15,.17,.25,.24s.21,.12,.34,.16c.13,.04,.27,.06,.43,.06,.17,0,.33-.02,.47-.06s.26-.09,.37-.16c.1-.07,.18-.15,.24-.25,.06-.09,.09-.2,.09-.31,0-.15-.05-.28-.14-.4-.09-.11-.26-.21-.49-.28l-.77-.25c-.39-.13-.68-.29-.87-.5-.19-.21-.29-.48-.29-.81,0-.22,.05-.43,.14-.61,.09-.18,.23-.34,.39-.47,.17-.13,.37-.23,.6-.3,.23-.07,.48-.11,.75-.11s.51,.03,.73,.1c.22,.06,.41,.16,.56,.28,.16,.12,.29,.27,.39,.44s.17,.36,.2,.56h-.79c-.05-.22-.18-.39-.37-.51-.19-.12-.44-.18-.73-.18-.15,0-.3,.02-.43,.06-.13,.04-.24,.09-.33,.15s-.17,.14-.22,.23-.08,.19-.08,.3c0,.16,.06,.29,.18,.4,.12,.11,.29,.2,.52,.28l.68,.22c.21,.07,.39,.15,.54,.23s.27,.18,.37,.29,.17,.23,.21,.37c.04,.14,.07,.29,.07,.46,0,.22-.05,.42-.15,.61-.1,.18-.24,.34-.42,.48-.18,.13-.39,.24-.64,.32-.25,.08-.52,.11-.81,.11s-.53-.03-.76-.1-.43-.17-.6-.29c-.17-.13-.31-.28-.41-.45-.1-.18-.17-.37-.18-.58h.82Z"/>
      <path d="M43.78,60.45h-2.69l-1.08,1.92h-.9l3.93-6.71h.78l1.05,6.71h-.82l-.27-1.92Zm-2.29-.71h2.2l-.44-2.98h-.07l-1.68,2.98Z"/>
      <path d="M46.97,57.36h.77l-.13,.64h.07c.17-.25,.36-.44,.58-.55,.22-.12,.47-.17,.77-.17,.06,0,.11,0,.17,0,.06,0,.11,0,.17,.02,.05,0,.1,.02,.15,.02s.08,.02,.1,.03l-.17,.77s-.08-.02-.14-.02c-.05,0-.11-.01-.17-.02-.06,0-.12-.01-.18-.01-.06,0-.11,0-.15,0-.4,0-.72,.11-.96,.33-.24,.22-.41,.56-.5,1.03l-.63,2.96h-.81l1.06-5.01Z"/>
      <path d="M51.68,62.41c-.17,0-.33-.02-.48-.06-.15-.04-.27-.1-.38-.19-.11-.08-.19-.19-.25-.32-.06-.13-.09-.28-.09-.45,0-.12,.02-.27,.05-.43l.63-2.93h-.84l.14-.67h.85l.27-1.3h.81l-.27,1.3h1.14l-.15,.67h-1.13l-.57,2.69c-.04,.18-.06,.33-.06,.45,0,.19,.05,.33,.17,.41,.11,.08,.27,.13,.47,.13,.07,0,.13,0,.19,0,.05,0,.11,0,.16-.01l-.14,.68c-.07,.02-.15,.03-.23,.03s-.17,0-.26,0Z"/>
      <path d="M54.48,57.36h.8l-1.06,5.01h-.8l1.06-5.01Zm.74-1.02c-.08,0-.15-.01-.22-.04-.07-.03-.13-.07-.18-.12-.05-.05-.09-.11-.12-.18-.03-.07-.04-.14-.04-.22s.01-.15,.04-.22c.03-.07,.07-.13,.12-.18,.05-.05,.11-.09,.18-.12,.07-.03,.14-.04,.22-.04s.15,.01,.22,.04c.07,.03,.13,.07,.18,.12s.09,.11,.12,.18c.03,.07,.04,.14,.04,.22s-.01,.15-.04,.22c-.03,.07-.07,.13-.12,.18-.05,.05-.11,.09-.18,.12-.07,.03-.14,.04-.22,.04Z"/>
      <path d="M56.57,61.03c.03,.11,.08,.21,.15,.3,.07,.09,.15,.17,.25,.24s.21,.12,.34,.16c.13,.04,.27,.06,.43,.06,.17,0,.33-.02,.47-.06s.26-.09,.37-.16c.1-.07,.18-.15,.24-.25,.06-.09,.09-.2,.09-.31,0-.15-.05-.28-.14-.4-.09-.11-.26-.21-.49-.28l-.77-.25c-.39-.13-.68-.29-.87-.5-.19-.21-.29-.48-.29-.81,0-.22,.05-.43,.14-.61,.09-.18,.23-.34,.39-.47,.17-.13,.37-.23,.6-.3,.23-.07,.48-.11,.75-.11s.51,.03,.73,.1c.22,.06,.41,.16,.56,.28,.16,.12,.29,.27,.39,.44s.17,.36,.2,.56h-.79c-.05-.22-.18-.39-.37-.51-.19-.12-.44-.18-.73-.18-.15,0-.3,.02-.43,.06-.13,.04-.24,.09-.33,.15s-.17,.14-.22,.23-.08,.19-.08,.3c0,.16,.06,.29,.18,.4,.12,.11,.29,.2,.52,.28l.68,.22c.21,.07,.39,.15,.54,.23s.27,.18,.37,.29,.17,.23,.21,.37c.04,.14,.07,.29,.07,.46,0,.22-.05,.42-.15,.61-.1,.18-.24,.34-.42,.48-.18,.13-.39,.24-.64,.32-.25,.08-.52,.11-.81,.11s-.53-.03-.76-.1-.43-.17-.6-.29c-.17-.13-.31-.28-.41-.45-.1-.18-.17-.37-.18-.58h.82Z"/>
      <path d="M62.39,62.41c-.17,0-.33-.02-.48-.06-.15-.04-.27-.1-.38-.19-.11-.08-.19-.19-.25-.32-.06-.13-.09-.28-.09-.45,0-.12,.02-.27,.05-.43l.63-2.93h-.84l.14-.67h.85l.27-1.3h.81l-.27,1.3h1.14l-.15,.67h-1.13l-.57,2.69c-.04,.18-.06,.33-.06,.45,0,.19,.05,.33,.17,.41,.11,.08,.27,.13,.47,.13,.07,0,.13,0,.19,0,.05,0,.11,0,.16-.01l-.14,.68c-.07,.02-.15,.03-.23,.03-.09,0-.17,0-.26,0Z"/>
      <path d="M64.78,61.03c.03,.11,.08,.21,.15,.3,.07,.09,.15,.17,.25,.24s.21,.12,.34,.16c.13,.04,.27,.06,.43,.06,.17,0,.33-.02,.47-.06s.26-.09,.37-.16c.1-.07,.18-.15,.24-.25,.06-.09,.09-.2,.09-.31,0-.15-.05-.28-.14-.4-.09-.11-.26-.21-.49-.28l-.77-.25c-.39-.13-.68-.29-.87-.5-.19-.21-.29-.48-.29-.81,0-.22,.05-.43,.14-.61,.09-.18,.23-.34,.39-.47,.17-.13,.37-.23,.6-.3,.23-.07,.48-.11,.75-.11s.51,.03,.73,.1c.22,.06,.41,.16,.56,.28,.16,.12,.29,.27,.39,.44s.17,.36,.2,.56h-.79c-.05-.22-.18-.39-.37-.51-.19-.12-.44-.18-.73-.18-.15,0-.3,.02-.43,.06-.13,.04-.24,.09-.33,.15s-.17,.14-.22,.23-.08,.19-.08,.3c0,.16,.06,.29,.18,.4,.12,.11,.29,.2,.52,.28l.68,.22c.21,.07,.39,.15,.54,.23s.27,.18,.37,.29,.17,.23,.21,.37c.04,.14,.07,.29,.07,.46,0,.22-.05,.42-.15,.61-.1,.18-.24,.34-.42,.48-.18,.13-.39,.24-.64,.32-.25,.08-.52,.11-.81,.11s-.53-.03-.76-.1-.43-.17-.6-.29c-.17-.13-.31-.28-.41-.45-.1-.18-.17-.37-.18-.58h.82Z"/>
      <path d="M75.63,62.37h-.77l.15-.68h-.07c-.07,.11-.16,.21-.26,.3-.1,.09-.21,.17-.34,.24-.13,.07-.27,.12-.43,.16s-.33,.06-.52,.06c-.23,0-.44-.04-.62-.11-.18-.07-.34-.18-.47-.31-.13-.13-.23-.28-.3-.46-.07-.18-.1-.37-.1-.58,0-.04,0-.08,0-.13,0-.05,0-.11,.01-.17s.01-.12,.02-.18c0-.06,.02-.11,.03-.17l.63-2.99h.81l-.61,2.88s-.02,.1-.03,.15c0,.05-.02,.1-.02,.16,0,.05-.01,.1-.01,.15s0,.08,0,.11c0,.32,.08,.56,.24,.71s.4,.23,.73,.23c.2,0,.39-.03,.56-.1,.17-.07,.32-.16,.46-.28,.13-.12,.24-.27,.33-.43,.09-.17,.16-.35,.2-.55l.64-3.01h.81l-1.06,5.01Z"/>
      <path d="M76.77,64.05l1.42-6.69h.77l-.14,.68h.07c.09-.12,.19-.23,.31-.32,.12-.1,.25-.18,.38-.24,.14-.07,.28-.12,.44-.15,.15-.04,.31-.05,.47-.05,.25,0,.49,.05,.7,.15,.22,.1,.41,.23,.57,.4,.16,.17,.29,.38,.38,.61,.09,.24,.14,.5,.14,.77,0,.46-.07,.89-.2,1.28-.13,.4-.31,.74-.54,1.03s-.5,.52-.81,.69-.65,.25-1.01,.25c-.18,0-.35-.02-.52-.07-.16-.05-.31-.12-.44-.21s-.24-.2-.34-.32c-.09-.13-.16-.26-.21-.41h-.07l-.56,2.6h-.8Zm2.88-2.31c.25,0,.49-.06,.71-.18,.22-.12,.41-.29,.57-.5s.29-.47,.38-.76c.09-.29,.13-.61,.13-.96,0-.42-.11-.75-.32-.99-.21-.23-.51-.35-.89-.35-.26,0-.5,.06-.73,.18-.22,.12-.42,.29-.59,.5s-.3,.46-.39,.75c-.09,.29-.14,.6-.14,.93,0,.21,.03,.41,.09,.58,.06,.17,.14,.32,.25,.44s.24,.21,.4,.28c.15,.06,.33,.1,.53,.1Z"/>
      <path d="M82.96,61.79l3.55-3.68v-.07s-2.75,0-2.75,0l.15-.67h3.84l-.13,.6-3.53,3.67v.07s2.74,0,2.74,0l-.14,.67h-3.86l.13-.59Z"/>
      <path d="M92.15,62.37h-.77l.15-.68h-.07c-.07,.11-.16,.21-.26,.3-.1,.09-.21,.17-.34,.24-.13,.07-.27,.12-.43,.16s-.33,.06-.52,.06c-.23,0-.44-.04-.62-.11-.18-.07-.34-.18-.47-.31-.13-.13-.23-.28-.3-.46-.07-.18-.1-.37-.1-.58,0-.04,0-.08,0-.13,0-.05,0-.11,.01-.17s.01-.12,.02-.18c0-.06,.02-.11,.03-.17l.63-2.99h.81l-.61,2.88s-.02,.1-.03,.15c0,.05-.02,.1-.02,.16,0,.05-.01,.1-.01,.15s0,.08,0,.11c0,.32,.08,.56,.24,.71s.4,.23,.73,.23c.2,0,.39-.03,.56-.1,.17-.07,.32-.16,.46-.28,.13-.12,.24-.27,.33-.43,.09-.17,.16-.35,.2-.55l.64-3.01h.81l-1.06,5.01Z"/>
      <path d="M94.7,57.36h.78l-.16,.77h.07c.07-.12,.15-.24,.25-.34,.1-.1,.21-.19,.33-.27,.12-.08,.25-.14,.39-.18,.14-.04,.28-.06,.42-.06,.18,0,.35,.03,.5,.08s.28,.12,.4,.21c.11,.09,.21,.18,.28,.29,.07,.11,.12,.22,.15,.34h.07c.07-.12,.16-.24,.27-.35,.1-.11,.23-.21,.36-.29,.13-.08,.28-.15,.45-.2,.16-.05,.34-.07,.53-.07,.2,0,.39,.03,.56,.1,.17,.07,.32,.16,.45,.28,.13,.12,.23,.27,.3,.43,.07,.17,.11,.35,.11,.55,0,.17-.02,.37-.07,.58l-.67,3.16h-.81l.64-3.02c.02-.09,.03-.18,.04-.26s.02-.16,.02-.23c0-.12-.02-.23-.06-.34-.04-.1-.1-.2-.17-.28-.08-.08-.17-.14-.28-.19-.11-.05-.24-.07-.38-.07s-.29,.03-.44,.08c-.14,.06-.27,.14-.39,.24-.12,.11-.22,.24-.31,.39-.09,.15-.15,.33-.19,.52l-.67,3.14h-.81l.64-3.02c.02-.09,.03-.18,.04-.26,.01-.08,.02-.16,.02-.23,0-.12-.02-.23-.06-.34-.04-.1-.1-.2-.17-.28-.08-.08-.17-.14-.28-.19-.11-.05-.24-.07-.38-.07s-.29,.03-.44,.08c-.14,.06-.27,.14-.39,.24s-.22,.23-.31,.37c-.09,.15-.15,.31-.19,.48l-.68,3.2h-.81l1.07-5.01Z"/>
      <path d="M103.04,57.36h.8l-1.06,5.01h-.8l1.06-5.01Zm.74-1.02c-.08,0-.15-.01-.22-.04-.07-.03-.13-.07-.18-.12-.05-.05-.09-.11-.12-.18-.03-.07-.04-.14-.04-.22s.01-.15,.04-.22c.03-.07,.07-.13,.12-.18,.05-.05,.11-.09,.18-.12,.07-.03,.14-.04,.22-.04s.15,.01,.22,.04c.07,.03,.13,.07,.18,.12s.09,.11,.12,.18c.03,.07,.04,.14,.04,.22s-.01,.15-.04,.22c-.03,.07-.07,.13-.12,.18-.05,.05-.11,.09-.18,.12-.07,.03-.14,.04-.22,.04Z"/>
      <path d="M108.35,58.89c-.01-.13-.05-.25-.12-.36-.07-.11-.15-.21-.26-.29-.11-.08-.23-.14-.37-.19s-.29-.07-.45-.07c-.25,0-.48,.06-.69,.17-.21,.11-.4,.27-.55,.47-.16,.2-.28,.44-.37,.71-.09,.27-.13,.57-.13,.88,0,.23,.03,.44,.09,.63,.06,.19,.14,.34,.25,.47,.11,.13,.24,.23,.4,.3,.15,.07,.33,.1,.52,.1,.31,0,.58-.07,.8-.21,.22-.14,.38-.33,.48-.58h.83c-.05,.23-.14,.44-.27,.62-.13,.19-.29,.35-.48,.48-.19,.13-.41,.24-.65,.31s-.5,.11-.78,.11c-.3,0-.58-.05-.83-.15-.25-.1-.46-.24-.64-.43s-.31-.41-.41-.67-.15-.55-.15-.87c0-.44,.07-.85,.2-1.22,.13-.37,.32-.7,.55-.97,.24-.27,.52-.49,.84-.64,.32-.16,.68-.23,1.06-.23,.25,0,.48,.03,.7,.1,.22,.07,.41,.17,.58,.29s.31,.27,.42,.44c.11,.17,.19,.36,.23,.56,0,.03,.01,.07,.01,.11,0,.04,0,.07,0,.11h-.82Z"/>
      <path d="M111.14,55.37h.81l-.59,2.74h.07c.08-.11,.16-.22,.26-.32,.09-.1,.2-.19,.32-.27,.12-.08,.26-.14,.41-.18s.32-.07,.51-.07c.24,0,.46,.04,.66,.12s.36,.19,.49,.33,.24,.3,.31,.48c.07,.18,.11,.37,.11,.57,0,.17-.02,.37-.07,.58l-.64,3.02h-.81l.61-2.88c.02-.09,.03-.18,.04-.26s.02-.16,.02-.23c0-.15-.02-.29-.07-.41s-.11-.23-.2-.32-.2-.16-.33-.21c-.13-.05-.28-.07-.45-.07-.2,0-.38,.03-.54,.1-.16,.07-.31,.16-.44,.28-.13,.12-.23,.26-.32,.42-.09,.16-.15,.34-.19,.53l-.65,3.06h-.81l1.5-7Z"/>
      <path d="M116.07,61.03c.03,.11,.08,.21,.15,.3,.07,.09,.15,.17,.25,.24s.21,.12,.34,.16c.13,.04,.27,.06,.43,.06,.17,0,.33-.02,.47-.06s.26-.09,.37-.16c.1-.07,.18-.15,.24-.25,.06-.09,.09-.2,.09-.31,0-.15-.05-.28-.14-.4-.09-.11-.26-.21-.49-.28l-.77-.25c-.39-.13-.68-.29-.87-.5-.19-.21-.29-.48-.29-.81,0-.22,.05-.43,.14-.61,.09-.18,.23-.34,.39-.47,.17-.13,.37-.23,.6-.3,.23-.07,.48-.11,.75-.11s.51,.03,.73,.1c.22,.06,.41,.16,.56,.28,.16,.12,.29,.27,.39,.44s.17,.36,.2,.56h-.79c-.05-.22-.18-.39-.37-.51-.19-.12-.44-.18-.73-.18-.15,0-.3,.02-.43,.06-.13,.04-.24,.09-.33,.15s-.17,.14-.22,.23-.08,.19-.08,.3c0,.16,.06,.29,.18,.4,.12,.11,.29,.2,.52,.28l.68,.22c.21,.07,.39,.15,.54,.23s.27,.18,.37,.29,.17,.23,.21,.37c.04,.14,.07,.29,.07,.46,0,.22-.05,.42-.15,.61-.1,.18-.24,.34-.42,.48-.18,.13-.39,.24-.64,.32-.25,.08-.52,.11-.81,.11s-.53-.03-.76-.1-.43-.17-.6-.29c-.17-.13-.31-.28-.41-.45-.1-.18-.17-.37-.18-.58h.82Z"/>
      <path d="M122.45,62.46c-.28,0-.54-.05-.79-.14s-.46-.23-.65-.4c-.18-.18-.33-.4-.44-.66-.11-.26-.16-.56-.16-.9,0-.46,.06-.88,.19-1.26,.13-.38,.31-.71,.54-.98,.23-.27,.5-.48,.83-.63s.67-.22,1.05-.22c.26,0,.5,.04,.73,.13s.43,.22,.61,.39c.17,.17,.31,.38,.41,.63,.1,.25,.15,.54,.15,.86,0,.05,0,.11,0,.17,0,.07,0,.13-.01,.2,0,.07-.01,.14-.02,.2,0,.07-.01,.12-.02,.17h-3.61s0,.09,0,.13c0,.04,0,.08,0,.13,0,.26,.04,.48,.11,.66,.07,.18,.17,.33,.29,.44s.25,.2,.4,.25c.15,.05,.3,.08,.45,.08,.33,0,.6-.06,.8-.17s.35-.27,.46-.46h.85c-.05,.19-.14,.37-.26,.54-.12,.17-.27,.31-.46,.43-.18,.12-.4,.22-.64,.29-.24,.07-.51,.1-.8,.1Zm1.63-3.06s0-.04,0-.09c0-.04,0-.08,0-.12,0-.16-.02-.32-.07-.47-.05-.15-.12-.28-.22-.39-.1-.11-.22-.2-.36-.27-.14-.06-.31-.1-.5-.1s-.37,.03-.54,.1-.32,.17-.46,.29c-.14,.13-.25,.28-.35,.45s-.18,.37-.24,.58h2.72Z"/>
      <path d="M126.68,57.36h.78l-.16,.75h.07c.08-.11,.17-.22,.26-.32,.1-.1,.21-.19,.33-.27s.26-.14,.42-.18c.15-.04,.32-.07,.51-.07,.24,0,.46,.04,.65,.12,.19,.08,.35,.19,.48,.33s.23,.3,.3,.48c.07,.18,.11,.37,.11,.57,0,.17-.02,.37-.06,.58l-.64,3.02h-.81l.61-2.88c.02-.09,.03-.18,.04-.26,.01-.08,.02-.16,.02-.23,0-.15-.02-.29-.07-.41s-.11-.23-.2-.32-.2-.16-.33-.21c-.13-.05-.28-.07-.44-.07-.19,0-.37,.03-.53,.1-.16,.07-.31,.16-.43,.28-.13,.12-.23,.26-.32,.42s-.15,.34-.19,.53l-.65,3.06h-.81l1.07-5.01Z"/>
      <path d="M132.04,62.46c-.09,0-.18-.02-.26-.05-.08-.03-.15-.08-.2-.14-.06-.06-.1-.13-.13-.2-.03-.08-.05-.16-.05-.26s.02-.18,.05-.26,.08-.15,.13-.21c.06-.06,.13-.1,.2-.14s.17-.05,.26-.05,.18,.02,.26,.05c.08,.03,.15,.08,.2,.14,.06,.06,.1,.13,.13,.21s.05,.17,.05,.26-.02,.18-.05,.26c-.03,.08-.08,.15-.13,.2-.06,.06-.13,.1-.2,.14-.08,.03-.17,.05-.26,.05Zm1.76-6.8l-1.03,4.48h-.77l.87-4.48h.93Z"/>
      <path d="M137.3,60.05l.16-.76h3.05l-.16,.76h-3.05Z"/>
      <path d="M142.15,60.8c0,.15,.03,.28,.08,.39,.05,.12,.12,.21,.21,.3s.2,.14,.32,.19,.27,.06,.43,.06c.65,0,1.06-.42,1.23-1.25l1.03-4.83h.83l-1.06,5.02c-.12,.59-.37,1.04-.73,1.36-.36,.32-.83,.48-1.41,.48-.27,0-.52-.04-.74-.13-.23-.09-.42-.21-.57-.36-.16-.15-.28-.34-.36-.55-.08-.21-.12-.44-.1-.68h.84Z"/>
      <path d="M148.75,62.46c-.3,0-.58-.05-.83-.15-.25-.1-.47-.24-.65-.43s-.32-.4-.42-.66-.15-.53-.15-.84c0-.46,.07-.87,.2-1.26s.31-.71,.55-.99c.23-.28,.51-.49,.84-.64s.68-.23,1.07-.23c.3,0,.58,.05,.83,.15,.25,.1,.47,.24,.64,.42s.32,.4,.42,.65c.1,.25,.15,.53,.15,.84,0,.45-.07,.87-.2,1.25s-.32,.71-.55,.99c-.24,.28-.52,.49-.84,.65-.32,.16-.68,.23-1.06,.23Zm-1.2-2.17c0,.22,.03,.41,.09,.59,.06,.18,.15,.33,.27,.46,.11,.13,.25,.23,.41,.29,.16,.07,.34,.1,.53,.1,.23,0,.45-.06,.66-.17,.21-.12,.39-.27,.54-.47,.15-.2,.27-.44,.36-.7,.09-.27,.13-.56,.13-.86,0-.24-.03-.45-.09-.64-.06-.19-.14-.35-.25-.48s-.24-.23-.4-.3c-.16-.07-.33-.1-.53-.1-.26,0-.49,.06-.71,.17-.21,.11-.4,.27-.55,.47-.15,.2-.27,.44-.35,.73-.08,.28-.13,.6-.13,.94Z"/>
      <path d="M154.39,62.46c-.3,0-.58-.05-.83-.15-.25-.1-.47-.24-.65-.43s-.32-.4-.42-.66-.15-.53-.15-.84c0-.46,.07-.87,.2-1.26s.31-.71,.55-.99c.23-.28,.51-.49,.84-.64s.68-.23,1.07-.23c.3,0,.58,.05,.83,.15,.25,.1,.47,.24,.64,.42s.32,.4,.42,.65c.1,.25,.15,.53,.15,.84,0,.45-.07,.87-.2,1.25s-.32,.71-.55,.99c-.24,.28-.52,.49-.84,.65-.32,.16-.68,.23-1.06,.23Zm-1.2-2.17c0,.22,.03,.41,.09,.59,.06,.18,.15,.33,.27,.46,.11,.13,.25,.23,.41,.29,.16,.07,.34,.1,.53,.1,.23,0,.45-.06,.66-.17,.21-.12,.39-.27,.54-.47,.15-.2,.27-.44,.36-.7,.09-.27,.13-.56,.13-.86,0-.24-.03-.45-.09-.64-.06-.19-.14-.35-.25-.48s-.24-.23-.4-.3c-.16-.07-.33-.1-.53-.1-.26,0-.49,.06-.71,.17-.21,.11-.4,.27-.55,.47-.15,.2-.27,.44-.35,.73-.08,.28-.13,.6-.13,.94Z"/>
      <path d="M159.26,55.37h.82l-1.49,7h-.82l1.49-7Z"/>
    </g>
  </g>
</svg>